<mxfile host="Electron" modified="2024-04-29T07:12:19.913Z" agent="Mozilla/5.0 (Windows NT 10.0; Win64; x64) AppleWebKit/537.36 (KHTML, like Gecko) draw.io/22.0.3 Chrome/114.0.5735.289 Electron/25.8.4 Safari/537.36" etag="_AHg9X08HVsgQtLYaD-S" version="22.0.3" type="device">
  <diagram name="Страница — 1" id="IMynVGL65Ry5mBqohLzT">
    <mxGraphModel dx="664" dy="371" grid="1" gridSize="10" guides="1" tooltips="1" connect="1" arrows="1" fold="1" page="1" pageScale="1" pageWidth="827" pageHeight="1169" math="0" shadow="0">
      <root>
        <mxCell id="0" />
        <mxCell id="1" parent="0" />
        <mxCell id="amCUov3BZnrFgJMk2oXd-2" style="edgeStyle=orthogonalEdgeStyle;rounded=0;orthogonalLoop=1;jettySize=auto;html=1;exitX=0.5;exitY=1;exitDx=0;exitDy=0;" edge="1" parent="1" source="amCUov3BZnrFgJMk2oXd-1">
          <mxGeometry relative="1" as="geometry">
            <mxPoint x="380" y="160" as="targetPoint" />
          </mxGeometry>
        </mxCell>
        <mxCell id="amCUov3BZnrFgJMk2oXd-1" value="Start" style="ellipse;whiteSpace=wrap;html=1;" vertex="1" parent="1">
          <mxGeometry x="320" y="20" width="120" height="80" as="geometry" />
        </mxCell>
        <mxCell id="amCUov3BZnrFgJMk2oXd-6" style="edgeStyle=orthogonalEdgeStyle;rounded=0;orthogonalLoop=1;jettySize=auto;html=1;exitX=0.5;exitY=1;exitDx=0;exitDy=0;entryX=0.5;entryY=0;entryDx=0;entryDy=0;" edge="1" parent="1" source="amCUov3BZnrFgJMk2oXd-4" target="amCUov3BZnrFgJMk2oXd-5">
          <mxGeometry relative="1" as="geometry" />
        </mxCell>
        <mxCell id="amCUov3BZnrFgJMk2oXd-4" value="string_array1 = []&lt;br&gt;" style="shape=parallelogram;perimeter=parallelogramPerimeter;whiteSpace=wrap;html=1;fixedSize=1;" vertex="1" parent="1">
          <mxGeometry x="285" y="160" width="190" height="80" as="geometry" />
        </mxCell>
        <mxCell id="amCUov3BZnrFgJMk2oXd-9" style="edgeStyle=orthogonalEdgeStyle;rounded=0;orthogonalLoop=1;jettySize=auto;html=1;exitX=0.5;exitY=1;exitDx=0;exitDy=0;entryX=0.5;entryY=0;entryDx=0;entryDy=0;" edge="1" parent="1" source="amCUov3BZnrFgJMk2oXd-5" target="amCUov3BZnrFgJMk2oXd-7">
          <mxGeometry relative="1" as="geometry" />
        </mxCell>
        <mxCell id="amCUov3BZnrFgJMk2oXd-13" style="edgeStyle=orthogonalEdgeStyle;rounded=0;orthogonalLoop=1;jettySize=auto;html=1;exitX=1;exitY=0.5;exitDx=0;exitDy=0;" edge="1" parent="1" source="amCUov3BZnrFgJMk2oXd-5">
          <mxGeometry relative="1" as="geometry">
            <mxPoint x="550" y="330" as="targetPoint" />
          </mxGeometry>
        </mxCell>
        <mxCell id="amCUov3BZnrFgJMk2oXd-5" value="i = 0; i &amp;lt;&amp;nbsp; string_array1; i++" style="shape=hexagon;perimeter=hexagonPerimeter2;whiteSpace=wrap;html=1;fixedSize=1;" vertex="1" parent="1">
          <mxGeometry x="290" y="290" width="180" height="80" as="geometry" />
        </mxCell>
        <mxCell id="amCUov3BZnrFgJMk2oXd-10" style="edgeStyle=orthogonalEdgeStyle;rounded=0;orthogonalLoop=1;jettySize=auto;html=1;exitX=0.5;exitY=1;exitDx=0;exitDy=0;entryX=0.5;entryY=0;entryDx=0;entryDy=0;" edge="1" parent="1" source="amCUov3BZnrFgJMk2oXd-7" target="amCUov3BZnrFgJMk2oXd-8">
          <mxGeometry relative="1" as="geometry" />
        </mxCell>
        <mxCell id="amCUov3BZnrFgJMk2oXd-11" style="edgeStyle=orthogonalEdgeStyle;rounded=0;orthogonalLoop=1;jettySize=auto;html=1;exitX=0;exitY=0.5;exitDx=0;exitDy=0;entryX=0;entryY=0.5;entryDx=0;entryDy=0;" edge="1" parent="1" source="amCUov3BZnrFgJMk2oXd-7" target="amCUov3BZnrFgJMk2oXd-5">
          <mxGeometry relative="1" as="geometry" />
        </mxCell>
        <mxCell id="amCUov3BZnrFgJMk2oXd-7" value="string_array1[i].Length &amp;lt;= 3" style="rhombus;whiteSpace=wrap;html=1;" vertex="1" parent="1">
          <mxGeometry x="275" y="400" width="210" height="140" as="geometry" />
        </mxCell>
        <mxCell id="amCUov3BZnrFgJMk2oXd-12" style="edgeStyle=orthogonalEdgeStyle;rounded=0;orthogonalLoop=1;jettySize=auto;html=1;exitX=0;exitY=0.5;exitDx=0;exitDy=0;" edge="1" parent="1" source="amCUov3BZnrFgJMk2oXd-8">
          <mxGeometry relative="1" as="geometry">
            <mxPoint x="260" y="470" as="targetPoint" />
          </mxGeometry>
        </mxCell>
        <mxCell id="amCUov3BZnrFgJMk2oXd-8" value="string_array_new[i] = string_array1[i]" style="rounded=1;whiteSpace=wrap;html=1;" vertex="1" parent="1">
          <mxGeometry x="320" y="585" width="120" height="60" as="geometry" />
        </mxCell>
        <mxCell id="amCUov3BZnrFgJMk2oXd-16" style="edgeStyle=orthogonalEdgeStyle;rounded=0;orthogonalLoop=1;jettySize=auto;html=1;entryX=0.5;entryY=0;entryDx=0;entryDy=0;" edge="1" parent="1" source="amCUov3BZnrFgJMk2oXd-14" target="amCUov3BZnrFgJMk2oXd-15">
          <mxGeometry relative="1" as="geometry" />
        </mxCell>
        <mxCell id="amCUov3BZnrFgJMk2oXd-14" value="Print" style="shape=document;whiteSpace=wrap;html=1;boundedLbl=1;" vertex="1" parent="1">
          <mxGeometry x="550" y="300" width="120" height="80" as="geometry" />
        </mxCell>
        <mxCell id="amCUov3BZnrFgJMk2oXd-15" value="End" style="ellipse;whiteSpace=wrap;html=1;" vertex="1" parent="1">
          <mxGeometry x="560" y="410" width="120" height="80" as="geometry" />
        </mxCell>
      </root>
    </mxGraphModel>
  </diagram>
</mxfile>
